PathFileType	3	(X/Y/Z)	F:\ViconData\AntennenMessung\Messung1\Session1\ID04.trc
DataRate	CameraRate	NumFrames	NumMarkers	Units	OrigDataRate	OrigDataStartFrame	OrigNumFrames
120.0	120.0	5	70	mm	120.0	866	1154	
Frame#	Time	Ashort			Along			Atop			A4			Bshort			Blong			Btop			B4			Cshort			Clong			Ctop			C4			Dshort			Dlong			Dtop			D4			Eshort			Elong			Etop			E4			Fshort			Flong			Ftop			F4			Gshort			Glong			Gtop			G4			Hshort			Hlong			Htop			H4			I1			I2			I3			I4			I5			WandAshort			WandAlong			WandAtop			WandA4			WandA15			WandBshort			WandB4			WandB5			WandBtop			WandBlong			WandCshort			WandClong			WandCtop			WandC4			WandC5			Acenter			Aantenna			Bcenter			Bantenna			Ccenter			Cantenna			Dcenter			Dantenna			Ecenter			Eantenna			Fcenter			Fantenna			Gcenter			Gantenna			Hcenter			Hantenna			Icenter			Iantenna			
		X1	Y1	Z1	X2	Y2	Z2	X3	Y3	Z3	X4	Y4	Z4	X5	Y5	Z5	X6	Y6	Z6	X7	Y7	Z7	X8	Y8	Z8	X9	Y9	Z9	X10	Y10	Z10	X11	Y11	Z11	X12	Y12	Z12	X13	Y13	Z13	X14	Y14	Z14	X15	Y15	Z15	X16	Y16	Z16	X17	Y17	Z17	X18	Y18	Z18	X19	Y19	Z19	X20	Y20	Z20	X21	Y21	Z21	X22	Y22	Z22	X23	Y23	Z23	X24	Y24	Z24	X25	Y25	Z25	X26	Y26	Z26	X27	Y27	Z27	X28	Y28	Z28	X29	Y29	Z29	X30	Y30	Z30	X31	Y31	Z31	X32	Y32	Z32	X33	Y33	Z33	X34	Y34	Z34	X35	Y35	Z35	X36	Y36	Z36	X37	Y37	Z37	X38	Y38	Z38	X39	Y39	Z39	X40	Y40	Z40	X41	Y41	Z41	X42	Y42	Z42	X43	Y43	Z43	X44	Y44	Z44	X45	Y45	Z45	X46	Y46	Z46	X47	Y47	Z47	X48	Y48	Z48	X49	Y49	Z49	X50	Y50	Z50	X51	Y51	Z51	X52	Y52	Z52	X53	Y53	Z53	X54	Y54	Z54	X55	Y55	Z55	X56	Y56	Z56	X57	Y57	Z57	X58	Y58	Z58	X59	Y59	Z59	X60	Y60	Z60	X61	Y61	Z61	X62	Y62	Z62	X63	Y63	Z63	X64	Y64	Z64	X65	Y65	Z65	X66	Y66	Z66	X67	Y67	Z67	X68	Y68	Z68	X69	Y69	Z69	X70	Y70	Z70	
866	7.2083333	-1038.2832	214.48441	-1644.2574	-1109.2913	203.37863	-1599.5476	-1063.6643	172.63004	-1625.5723	-1054.1782	262.10422	-1634.995	-1353.1099	235.07251	1003.9243	-1281.3461	227.13782	1052.3541	-1323.1284	194.16364	1020.805	-1284.7411	287.84921	1052.7906	813.86194	187.71288	1209.5161	892.29456	178.39171	1179.1923	844.26318	145.53708	1198.1605	860.41455	292.33591	1167.2672	1115.7823	209.72478	-1401.7267	1056.1888	193.95654	-1460.1675	1095.0879	162.44455	-1423.9509	1069.8267	238.55573	-1425.9791	-1204.4587	1685.9508	-1563.3419	-1129.1555	1688.3357	-1606.5911	-1173.109	1724.4086	-1582.0059	-1133.5428	1581.0553	-1603.5231	-1239.7063	1699.2249	1119.2812	-1309.507	1698.8907	1071.6877	-1270.3499	1736.1436	1096.6575	-1244.6118	1594.2179	1106.3207	988.78479	1664.2295	1162.2572	957.43903	1700.3329	1183.7233	922.5528	1662.0513	1214.8597	939.81128	1659.328	1159.8691	999.1908	1668.5416	-1579.5389	1058.7374	1669.9983	-1518.6724	1025.0431	1708.0177	-1551.1537	1059.28	1672.1157	-1585.4485	-287.22632	140.26208	479.84174	-371.64514	147.43269	481.16284	-327.62494	105.84338	481.17633	-324.04495	145.0498	512.3515	-324.74185	141.37851	434.28799																																														-1069.0327	209.67516	-1624.8961	-1074.6249	248.2657	-1624.192	-1321.8376	231.61482	1025.0282	-1320.5027	270.3465	1029.396	848.06946	183.64755	1196.2908	851.94061	222.40833	1194.389	1088.712	202.56204	-1428.2734	1082.6248	240.86238	-1432.4003	-1171.9332	1686.9807	-1582.0225	-1170.7086	1648	-1582.0397	-1271.0338	1699.0748	1097.9205	-1271.7527	1660.104	1099.2485	953.10449	1705.3251	1186.6914	972.9646	1733.4551	1168.3809	1026.4869	1669.2094	-1551.6375	1027.9369	1630.2393	-1552.1234	-324.44461	143.42343	480.42413	-321.15652	182.27679	479.64651
867	7.2166667	-1038.2838	214.42917	-1644.2335	-1109.3008	203.36717	-1599.5438	-1063.5986	172.65967	-1625.5764	-1054.0431	262.06741	-1635.0304	-1353.0353	234.92476	1003.8363	-1281.4073	227.32414	1052.188	-1323.0066	194.20297	1020.7665	-1284.7264	287.85355	1052.8181	813.76697	187.72467	1209.5574	892.34589	178.35838	1179.2727	844.18341	145.58861	1198.0931	860.4563	292.38333	1167.3041	1115.7839	209.74522	-1401.72	1056.2134	193.95874	-1460.1068	1094.9983	162.18375	-1423.9132	1069.854	238.57901	-1425.9615	-1204.5175	1686.0005	-1563.203	-1129.1045	1688.2859	-1606.3127	-1173.109	1724.4009	-1582.0088	-1133.5493	1581.059	-1603.5134	-1239.7081	1699.2072	1119.2733	-1309.46	1698.7983	1071.6499	-1270.3469	1736.1478	1096.6614	-1244.6222	1594.3756	1106.6738	988.78778	1664.2104	1162.2656	957.43323	1700.3278	1183.6742	922.64496	1662.019	1214.8102	939.76953	1659.3038	1159.8728	999.20184	1668.5596	-1579.5446	1058.8619	1670.1678	-1518.6396	1025.0455	1708.0221	-1551.1532	1059.2744	1672.1552	-1585.552	-287.21588	140.31937	479.85397	-371.58325	147.37149	481.18893	-327.59756	105.8409	481.15097	-324.02725	145.31836	512.43427	-324.77927	141.41452	434.31546																																														-1068.9554	209.65157	-1624.9323	-1074.5439	248.24324	-1624.2604	-1321.8286	231.61333	1024.902	-1320.6085	270.35825	1029.1852	848.04547	183.63879	1196.3462	851.97974	222.39902	1194.5668	1088.6321	202.54987	-1428.3322	1082.5919	240.85045	-1432.525	-1171.8877	1686.9893	-1581.8557	-1170.6151	1648.0104	-1581.6962	-1270.9869	1699.0237	1097.9176	-1271.6588	1660.0519	1099.2362	953.16559	1705.2434	1186.588	973.01404	1733.3536	1168.2345	1026.5607	1669.297	-1551.6147	1028.0854	1630.3296	-1552.0793	-324.46646	143.43306	480.44339	-321.22992	182.29166	479.71194
868	7.225	-1038.3075	214.45284	-1644.2483	-1109.2942	203.371	-1599.5554	-1063.6084	173.08173	-1625.7637	-1054.1664	262.11975	-1634.9796	-1352.9485	234.98001	1003.8118	-1281.4083	227.31906	1052.1953	-1323.1129	194.13599	1020.8449	-1284.7349	287.8208	1052.8351	813.82355	187.64413	1209.527	892.13855	178.49229	1179.186	844.27637	145.49144	1198.1797	860.48193	292.31876	1167.2834	1115.7863	209.74135	-1401.7152	1056.2172	193.97842	-1460.1407	1094.9846	162.19475	-1423.913	1069.8517	238.54689	-1425.9562	-1204.5149	1686.0125	-1563.2078	-1129.1442	1688.2042	-1606.0717	-1173.1134	1724.3951	-1581.9972	-1133.5372	1581.0674	-1603.5496	-1239.7059	1699.2213	1119.2671	-1309.5238	1698.906	1071.6919	-1270.4127	1736.2159	1096.6846	-1244.5327	1594.676	1106.5782	988.77515	1664.234	1162.2434	957.36719	1700.387	1183.6483	922.21368	1662.1151	1214.7286	939.78143	1659.2965	1159.8955	999.19836	1668.5421	-1579.5314	1058.7115	1669.9768	-1518.6667	1025.0425	1708.0238	-1551.1686	1059.2739	1672.171	-1585.5568	-287.21518	140.21782	479.91003	-371.59561	147.36195	481.20441	-327.63052	105.79623	481.15173	-324.03662	145.04765	512.37708	-324.78128	141.39151	434.31049																																														-1068.8525	209.68439	-1625.0172	-1074.3826	248.2823	-1624.23	-1321.8162	231.64619	1024.8668	-1320.4766	270.40103	1029.0223	848.00165	183.65009	1196.2856	851.78656	222.41826	1194.3612	1088.6429	202.55882	-1428.3372	1082.625	240.86232	-1432.5356	-1171.8906	1686.9611	-1581.7612	-1170.6176	1647.9827	-1581.5157	-1271.0698	1699.0796	1097.8951	-1271.7594	1660.1064	1099.1655	952.96436	1705.4548	1186.6488	972.91797	1733.5773	1168.4286	1026.4656	1669.1995	-1551.6448	1027.894	1630.2285	-1552.1229	-324.45947	143.37114	480.48135	-321.18036	182.22685	479.78815
869	7.2333333	-1038.2788	214.49564	-1644.2634	-1109.302	203.41374	-1599.561	-1063.7029	172.62943	-1625.5394	-1054.0752	262.05325	-1634.9915	-1352.9889	235.4296	1003.8924	-1281.3295	227.08823	1052.3323	-1323.1621	194.13828	1020.8621	-1284.6982	287.86151	1052.7562	813.84705	187.71153	1209.5504	892.23596	178.54428	1179.2421	844.26904	145.53229	1198.1768	860.55524	292.27621	1167.2715	1115.8008	209.72073	-1401.7299	1056.254	194.02394	-1460.152	1095.0311	162.25853	-1423.7916	1069.851	238.56038	-1425.9631	-1204.4458	1685.9382	-1563.3436	-1129.1063	1688.2125	-1606.0631	-1173.1088	1724.4012	-1582.0079	-1133.5261	1580.9856	-1603.475	-1239.74	1699.2809	1119.3008	-1309.5951	1699.0586	1071.7494	-1270.3844	1736.1902	1096.673	-1244.6088	1594.3501	1106.5259	988.85089	1664.2936	1162.2675	957.45703	1700.3507	1183.6411	922.17133	1662.1545	1214.7911	939.85065	1659.3785	1159.8494	999.19043	1668.5458	-1579.5234	1058.8367	1670.1467	-1518.6378	1025.0304	1708.0229	-1551.1558	1059.2629	1672.1559	-1585.5571	-287.23941	140.25266	479.89972	-371.6264	147.43791	481.16183	-327.59201	105.81581	481.16196	-324.03931	145.12935	512.2901	-324.76523	141.43082	434.31143																																														-1069.0719	209.69092	-1624.8821	-1074.6626	248.28206	-1624.1976	-1321.6359	231.78001	1025.0862	-1320.0658	270.50531	1029.4319	848.02283	183.71483	1196.3365	851.83423	222.48312	1194.4683	1088.7711	202.59561	-1428.2489	1082.8257	240.90656	-1432.4823	-1171.8684	1686.9215	-1581.8158	-1170.5786	1647.9434	-1581.6162	-1271.1262	1699.1809	1097.9357	-1271.9075	1660.2114	1099.2654	952.92059	1705.5609	1186.7295	972.86035	1733.7084	1168.5325	1026.5347	1669.2795	-1551.6108	1028.048	1630.3116	-1552.0686	-324.40097	143.41682	480.45547	-321.10367	182.27034	479.72552
870	7.2416667	-1038.2808	214.47258	-1644.2509	-1109.1819	203.20061	-1599.6191	-1063.6104	173.06482	-1625.7571	-1054.1637	262.10245	-1634.9552	-1353.0383	235.09448	1003.8575	-1281.2642	227.16449	1052.2198	-1323.1639	194.11707	1020.8519	-1284.7294	287.80591	1052.7666	813.85999	187.69832	1209.5107	892.38489	178.4733	1179.1801	844.26727	145.43463	1198.2181	860.45959	292.31961	1167.2799	1115.7958	209.74242	-1401.7262	1056.2073	193.96245	-1460.1259	1095.0073	162.26247	-1423.8833	1069.8475	238.58922	-1425.9646	-1204.4585	1685.9467	-1563.3367	-1129.1293	1688.2432	-1606.0952	-1173.1135	1724.3988	-1581.9982	-1133.5557	1581.0063	-1603.4773	-1239.723	1699.2417	1119.2739	-1309.5665	1699.0085	1071.7328	-1270.3508	1736.1606	1096.6708	-1244.6501	1594.0897	1106.4718	988.83649	1664.2622	1162.2495	957.48981	1700.3713	1183.6809	922.74536	1662.0454	1214.8481	939.7785	1659.3496	1159.8495	999.20294	1668.5558	-1579.553	1058.7236	1669.9855	-1518.6693	1025.0339	1708.0104	-1551.1537	1059.2769	1672.1726	-1585.5697	-287.21985	140.23969	479.79977	-371.66541	147.46458	481.1514	-327.57098	105.89394	481.09265	-324.03033	145.09138	512.35345	-324.74191	141.42757	434.30902																																														-1068.9196	209.60155	-1624.9637	-1074.5265	248.18729	-1624.1261	-1321.7657	231.63933	1024.9293	-1320.322	270.38449	1029.1398	848.02539	183.68459	1196.3141	851.83417	222.45016	1194.3844	1088.6725	202.55975	-1428.3082	1082.6514	240.86194	-1432.514	-1171.8765	1686.9399	-1581.8307	-1170.5894	1647.9615	-1581.6566	-1271.0828	1699.137	1097.9277	-1271.8533	1660.1671	1099.2509	953.22974	1705.2787	1186.5933	973.05353	1733.3929	1168.2194	1026.4775	1669.2109	-1551.6537	1027.9276	1630.2411	-1552.1561	-324.37167	143.41829	480.39438	-321.05914	182.27061	479.67142
